<?xml version="1.0" encoding="UTF-8"?>
<svg id="Layer_1" data-name="Layer 1" xmlns="http://www.w3.org/2000/svg" xmlns:xlink="http://www.w3.org/1999/xlink" viewBox="0 0 2108.68 1145">
  <defs>
    <style>
      .cls-1 {
        fill: url(#linear-gradient-15);
      }

      .cls-2 {
        fill: url(#linear-gradient-13);
      }

      .cls-3 {
        fill: url(#linear-gradient-2);
      }

      .cls-4 {
        fill: url(#linear-gradient-10);
      }

      .cls-5 {
        fill: url(#linear-gradient-12);
      }

      .cls-6 {
        fill: url(#linear-gradient-4);
      }

      .cls-7 {
        fill: url(#linear-gradient-3);
      }

      .cls-8 {
        fill: url(#linear-gradient-5);
      }

      .cls-9 {
        fill: url(#linear-gradient-8);
      }

      .cls-10 {
        fill: url(#linear-gradient-14);
      }

      .cls-11 {
        fill: url(#linear-gradient-7);
      }

      .cls-12 {
        fill: url(#linear-gradient-9);
      }

      .cls-13 {
        fill: url(#linear-gradient-11);
      }

      .cls-14 {
        fill: url(#linear-gradient-6);
      }

      .cls-15 {
        fill: url(#linear-gradient);
      }
    </style>
    <linearGradient id="linear-gradient" x1="1497.74" y1="520.72" x2="1617.28" y2="520.72" gradientUnits="userSpaceOnUse">
      <stop offset="0" stop-color="#17479e"/>
      <stop offset="1" stop-color="#00305f"/>
    </linearGradient>
    <linearGradient id="linear-gradient-2" x1="993.98" y1="448.53" x2="1063.06" y2="448.53" xlink:href="#linear-gradient"/>
    <linearGradient id="linear-gradient-3" x1="337.94" y1="418.64" x2="993.98" y2="418.64" xlink:href="#linear-gradient"/>
    <linearGradient id="linear-gradient-4" x1="1063.06" y1="209.32" x2="1546.52" y2="209.32" xlink:href="#linear-gradient"/>
    <linearGradient id="linear-gradient-5" x1="0" y1="972.74" x2="213.69" y2="972.74" xlink:href="#linear-gradient"/>
    <linearGradient id="linear-gradient-6" x1="238.31" y1="995.95" x2="351.39" y2="995.95" xlink:href="#linear-gradient"/>
    <linearGradient id="linear-gradient-7" x1="358.56" y1="1028.96" x2="558.85" y2="1028.96" xlink:href="#linear-gradient"/>
    <linearGradient id="linear-gradient-8" x1="574.13" y1="1026.16" x2="763.22" y2="1026.16" xlink:href="#linear-gradient"/>
    <linearGradient id="linear-gradient-9" x1="772.89" y1="979.91" x2="907.15" y2="979.91" xlink:href="#linear-gradient"/>
    <linearGradient id="linear-gradient-10" x1="914.32" y1="997.35" x2="1104.96" y2="997.35" xlink:href="#linear-gradient"/>
    <linearGradient id="linear-gradient-11" x1="1225.84" y1="972.74" x2="1422.39" y2="972.74" xlink:href="#linear-gradient"/>
    <linearGradient id="linear-gradient-12" x1="1452" y1="998.75" x2="1630.18" y2="998.75" xlink:href="#linear-gradient"/>
    <linearGradient id="linear-gradient-13" x1="1668.2" y1="966.2" x2="1727.39" y2="966.2" xlink:href="#linear-gradient"/>
    <linearGradient id="linear-gradient-14" x1="1752.31" y1="997.35" x2="1910.55" y2="997.35" xlink:href="#linear-gradient"/>
    <linearGradient id="linear-gradient-15" x1="1925.52" y1="997.35" x2="2108.68" y2="997.35" xlink:href="#linear-gradient"/>
  </defs>
  <polygon class="cls-15" points="1617.28 179.44 1617.28 415.67 1615.47 418.64 1617.28 418.64 1617.28 777.52 1546.52 777.52 1497.74 862 1497.74 299.11 1546.52 299.11 1615.6 179.44 1617.28 179.44"/>
  <polygon class="cls-3" points="1063.06 418.64 1028.52 478.41 1019.2 462.5 1019.2 462.37 993.98 418.64 1063.06 418.64"/>
  <polygon class="cls-7" points="993.98 418.64 717.64 418.64 683.23 358.87 660.33 319.29 648.69 299.1 614.14 239.21 579.6 299.1 545.06 358.87 540.79 366.25 510.52 418.64 475.98 478.54 510.52 538.31 540.79 590.71 545.06 598.08 579.6 657.98 614.14 717.75 648.56 777.52 579.6 777.52 545.06 837.29 540.79 830.04 540.79 829.91 510.52 777.52 475.98 717.75 441.57 657.98 421.12 622.79 421.12 622.66 406.89 598.08 372.48 538.31 337.94 478.54 372.48 418.64 406.89 358.87 421.12 334.42 441.44 299.1 475.98 239.34 510.52 179.44 540.79 127.17 545.06 119.67 579.73 59.77 614.14 0 648.69 59.77 660.33 79.95 683.23 119.54 717.77 179.44 855.81 179.44 890.35 239.34 899.67 255.38 924.89 299.1 959.43 358.87 993.98 418.64"/>
  <polygon class="cls-6" points="1546.52 179.44 1477.43 179.44 1442.89 239.34 1408.35 299.11 1378.08 351.5 1373.81 358.87 1339.27 418.64 1063.06 418.64 1097.6 358.87 1097.6 358.75 1132.02 299.11 1138.87 287.2 1166.56 239.21 1201.1 179.44 1339.27 179.44 1373.81 119.67 1378.08 112.29 1408.35 59.77 1442.89 0 1477.43 59.77 1497.74 94.96 1511.98 119.67 1546.52 179.44"/>
  <g>
    <path class="cls-8" d="M0,972.74c0-66.34,50.78-113.39,119.93-113.39,40.18,0,72.58,14.64,93.76,41.12l-39.25,35.51c-13.71-16.51-30.53-25.55-51.4-25.55-35.82,0-60.74,24.93-60.74,62.3s24.92,62.31,60.74,62.31c20.87,0,37.69-9.03,51.4-25.55l39.25,35.51c-21.18,26.47-53.58,41.11-93.76,41.11-69.15,0-119.93-47.04-119.93-113.39Z"/>
    <path class="cls-14" d="M351.39,910.12v53.28c-5.3-.63-9.04-.93-13.4-.93-23.99,0-40.5,12.14-40.5,41.74v77.56h-59.18v-168.84h56.38v20.25c12.15-15.26,31.77-23.06,56.69-23.06Z"/>
    <path class="cls-11" d="M558.85,912.93l-72.89,175.69c-17.75,43.61-42.67,56.38-76.01,56.38-17.76,0-37.69-5.91-48.91-15.26l20.56-41.43c6.85,6.23,16.82,9.97,26.16,9.97,11.52,0,18.07-4.36,23.05-14.33l-72.27-171.02h60.74l41.43,103.12,41.74-103.12h56.38Z"/>
    <path class="cls-9" d="M763.22,997.35c0,53.58-37.07,87.22-82.86,87.22-19.63,0-35.51-5.93-47.04-17.76v75.39h-59.18v-229.27h56.38v16.83c11.21-13.39,27.72-19.63,49.84-19.63,45.79,0,82.86,33.64,82.86,87.22ZM703.41,997.35c0-25.55-15.58-40.18-35.51-40.18s-35.51,14.63-35.51,40.18,15.58,40.19,35.51,40.19,35.51-14.64,35.51-40.19Z"/>
    <path class="cls-12" d="M907.15,1074.92c-10.28,6.53-25.55,9.65-41.12,9.65-43.3,0-68.53-21.19-68.53-64.48v-56.69h-24.61v-44.24h24.61v-43.92h59.18v43.92h38.63v44.24h-38.63v56.07c0,12.46,7.16,19.3,17.76,19.3,6.54,0,13.08-1.86,18.07-5.29l14.64,41.44Z"/>
    <path class="cls-4" d="M914.32,997.05c0-50.78,40.19-86.92,95.32-86.92s95.32,36.15,95.32,86.92-39.56,87.53-95.32,87.53-95.32-36.45-95.32-87.53ZM1045.15,997.05c0-25.55-15.27-39.87-35.51-39.87s-35.51,14.33-35.51,39.87,15.58,40.49,35.51,40.49,35.51-14.64,35.51-40.49Z"/>
    <path class="cls-13" d="M1422.39,944.4c0,49.52-37.38,80.36-96.88,80.36h-38v57h-61.68v-218.05h99.68c59.5,0,96.88,30.84,96.88,80.68ZM1360.1,944.4c0-20.25-12.77-32.09-38.32-32.09h-34.26v63.86h34.26c25.55,0,38.32-11.84,38.32-31.77Z"/>
    <path class="cls-5" d="M1630.18,912.93v168.84h-56.38v-18.07c-12.77,14.01-30.84,20.87-50.16,20.87-41.43,0-71.65-23.68-71.65-77.26v-94.39h59.19v84.74c0,26.16,10.28,36.45,28.03,36.45s31.77-11.53,31.77-39.87v-81.31h59.18Z"/>
    <path class="cls-2" d="M1668.2,850.63h59.18v231.14h-59.18v-231.14Z"/>
    <path class="cls-10" d="M1752.31,1067.13l17.75-40.49c15.58,9.65,38.32,15.58,58.88,15.58s26.47-4.37,26.47-11.53c0-22.74-99.68,3.12-99.68-64.47,0-31.77,29.28-56.08,82.24-56.08,23.67,0,49.84,4.99,66.66,14.34l-17.75,40.18c-16.82-9.34-33.64-12.46-48.6-12.46-19.94,0-27.1,5.61-27.1,11.84,0,23.36,99.37-1.87,99.37,65.1,0,31.16-28.65,55.45-83.48,55.45-28.66,0-58.25-7.16-74.76-17.45Z"/>
    <path class="cls-1" d="M2107.75,1012.31h-122.73c4.98,17.13,19.63,27.1,41.43,27.1,16.51,0,27.41-4.67,38.94-14.64l31.15,32.39c-16.2,18.07-39.87,27.42-71.96,27.42-60.12,0-99.06-37.07-99.06-87.53s39.56-86.92,92.83-86.92c49.84,0,90.33,31.77,90.33,87.54,0,4.36-.62,9.97-.93,14.64ZM1984.08,981.15h69.16c-3.12-17.75-16.2-28.97-34.58-28.97s-31.15,11.22-34.58,28.97Z"/>
  </g>
</svg>