<?xml version="1.0" encoding="UTF-8"?>
<svg id="Layer_1" xmlns="http://www.w3.org/2000/svg" version="1.1" xmlns:xlink="http://www.w3.org/1999/xlink" viewBox="0 0 2000 1000">
  <!-- Generator: Adobe Illustrator 29.7.1, SVG Export Plug-In . SVG Version: 2.1.1 Build 8)  -->
  <defs>
    <style>
      .st0 {
        fill: url(#linear-gradient2);
        stroke: url(#linear-gradient3);
      }

      .st0, .st1 {
        stroke-miterlimit: 10;
      }

      .st1 {
        fill: url(#linear-gradient);
        stroke: url(#linear-gradient1);
      }

      .st2 {
        fill: #e31d3c;
      }
    </style>
    <linearGradient id="linear-gradient" x1="868.47" y1="321.38" x2="1152.36" y2="321.38" gradientUnits="userSpaceOnUse">
      <stop offset=".26" stop-color="#e31d3c"/>
      <stop offset=".35" stop-color="#da283c"/>
      <stop offset=".52" stop-color="#c5473e"/>
      <stop offset=".74" stop-color="#a17a40"/>
      <stop offset="1" stop-color="#72bf44"/>
    </linearGradient>
    <linearGradient id="linear-gradient1" x1="867.97" y1="321.63" x2="1153.22" y2="321.63" xlink:href="#linear-gradient"/>
    <linearGradient id="linear-gradient2" x1="953.48" y1="353.47" x2="1151.44" y2="353.47" xlink:href="#linear-gradient"/>
    <linearGradient id="linear-gradient3" x1="953.48" y1="353.47" x2="1151.87" y2="353.47" xlink:href="#linear-gradient"/>
  </defs>
  <g>
    <path class="st2" d="M32.85,634.37c0,14.3,2.25,27.32,6.75,39.08,4.49,11.75,10.77,21.78,18.84,30.08,8.07,8.3,17.86,14.69,29.39,19.19,11.52,4.5,24.2,6.74,38.04,6.74,21.44,0,39.13-5.13,53.08-15.39,13.95-10.25,24.04-24.61,30.26-43.05h34.58c-3.23,13.37-8.25,25.47-15.04,36.31-6.8,10.84-15.22,20.05-25.24,27.66-10.03,7.61-21.56,13.48-34.58,17.63-13.02,4.15-27.38,6.23-43.05,6.23-18.91,0-36.08-3-51.52-8.99-15.45-5.99-28.7-14.41-39.77-25.24-11.06-10.83-19.6-23.91-25.59-39.25-6-15.33-8.99-32.33-8.99-51.01s2.99-35.67,8.99-51.01c5.99-15.33,14.52-28.41,25.59-39.25,11.06-10.83,24.32-19.25,39.77-25.24,15.44-5.99,32.62-8.99,51.52-8.99,15.67,0,30.03,2.07,43.05,6.22,13.02,4.15,24.55,10.03,34.58,17.63,10.03,7.61,18.44,16.83,25.24,27.66,6.79,10.84,11.81,22.95,15.04,36.31h-34.58c-6.22-18.44-16.31-32.8-30.26-43.06-13.95-10.25-31.64-15.39-53.08-15.39-13.84,0-26.52,2.25-38.04,6.74-11.53,4.5-21.32,10.9-29.39,19.2-8.07,8.29-14.35,18.27-18.84,29.91-4.5,11.64-6.75,24.72-6.75,39.25Z"/>
    <path class="st2" d="M305.33,755.4h-32.85v-84.72c0-14.06,2.13-26.68,6.4-37.86,4.26-11.17,10.37-20.69,18.33-28.53,7.95-7.83,17.46-13.89,28.53-18.16,11.06-4.26,23.52-6.39,37.35-6.39v31.81c-17.29,0-31.24,4.9-41.84,14.7-10.6,9.8-15.91,23.23-15.91,40.29v88.87Z"/>
    <path class="st2" d="M532.87,764.39v-44.95h-3.11v2.08c0,5.3-1.62,10.26-4.84,14.87-3.23,4.61-7.61,8.59-13.14,11.93-5.54,3.35-11.99,5.94-19.36,7.78-7.38,1.84-15.22,2.77-23.52,2.77-27.2,0-47.14-6.63-59.82-19.88-12.69-13.26-19.02-33.95-19.02-62.08v-94.4h32.85v97.17c0,17.29,4.09,29.68,12.28,37.17,8.18,7.5,21.49,11.24,39.94,11.24,9.21,0,17.4-1.43,24.55-4.32,7.14-2.88,13.19-6.92,18.16-12.1,4.95-5.18,8.7-11.41,11.23-18.68,2.54-7.26,3.81-15.15,3.81-23.69v-86.79h33.19v178.43c0,27.44-7.72,48.35-23.17,62.76-15.45,14.41-37.92,21.62-67.43,21.62-27.44,0-48.36-5.83-62.76-17.47-14.41-11.64-21.61-29.45-21.61-53.42h32.85c0,14.52,4.21,25.18,12.62,31.99,8.41,6.79,21.49,10.2,39.25,10.2,19.59,0,34-4.32,43.23-12.97,9.21-8.64,13.84-21.73,13.84-39.25Z"/>
    <path class="st2" d="M776.66,671.03c0,13.14-2.02,25.13-6.05,35.96-4.04,10.84-9.81,20.12-17.29,27.84-7.5,7.73-16.37,13.66-26.63,17.81-10.26,4.15-21.61,6.23-34.06,6.23-10.14,0-19.08-1.16-26.8-3.46-7.72-2.3-14.17-5.13-19.36-8.47-5.18-3.34-9.05-7.03-11.58-11.06-2.54-4.03-3.8-7.78-3.8-11.24v-3.11l-3.46-.35v120.69h-32.85v-172.9c0-13.6,2.19-25.88,6.57-36.83,4.38-10.95,10.55-20.4,18.5-28.36,7.96-7.95,17.51-14.06,28.7-18.33,11.18-4.26,23.57-6.4,37.17-6.4s26.34,2.19,37.52,6.57c11.18,4.38,20.75,10.55,28.7,18.49,7.96,7.96,14.06,17.59,18.33,28.88,4.26,11.3,6.4,23.98,6.4,38.04ZM743.81,668.95c0-8.76-1.38-16.77-4.15-24.04-2.76-7.26-6.74-13.48-11.93-18.67s-11.3-9.22-18.33-12.1c-7.03-2.88-14.93-4.32-23.69-4.32-17.98,0-32.15,5.3-42.53,15.91-10.38,10.6-15.56,25.02-15.56,43.23,0,8.76,1.09,16.77,3.28,24.03,2.19,7.26,5.59,13.49,10.2,18.68s10.72,9.22,18.33,12.1c7.61,2.89,16.71,4.32,27.31,4.32,17.98,0,31.99-5.3,42.02-15.91,10.03-10.6,15.04-25.01,15.04-43.23Z"/>
    <path class="st2" d="M901.83,755.4c-17.52,0-32.45-1.9-44.78-5.7-12.34-3.81-22.42-9.57-30.26-17.29-7.84-7.72-13.54-17.57-17.11-29.57-3.58-11.99-5.36-26.16-5.36-42.53v-113.77h32.85v38.04h64.67v29.39h-64.67v51.18c0,10.6,1.09,19.66,3.28,27.14,2.19,7.5,5.76,13.54,10.72,18.15,4.96,4.61,11.58,8.01,19.88,10.2,8.3,2.19,18.55,3.29,30.78,3.29v31.47Z"/>
    <path class="st2" d="M919.47,668.95c0-13.6,2.19-25.88,6.57-36.83,4.38-10.95,10.55-20.4,18.5-28.36,7.96-7.95,17.51-14.06,28.7-18.33,11.18-4.26,23.57-6.4,37.17-6.4s25.99,2.13,37.18,6.4c11.18,4.27,20.75,10.38,28.7,18.33,7.95,7.96,14.11,17.41,18.5,28.36,4.37,10.95,6.57,23.23,6.57,36.83s-2.19,25.59-6.57,36.65c-4.39,11.07-10.55,20.58-18.5,28.53-7.96,7.95-17.52,14.06-28.7,18.33-11.19,4.26-23.58,6.4-37.18,6.4s-25.99-2.13-37.17-6.4c-11.19-4.26-20.75-10.38-28.7-18.33-7.95-7.96-14.12-17.46-18.5-28.53-4.38-11.06-6.57-23.28-6.57-36.65ZM952.32,668.95c0,8.76,1.38,16.77,4.15,24.03,2.76,7.26,6.68,13.49,11.75,18.68s11.18,9.22,18.33,12.1c7.14,2.89,15.09,4.32,23.85,4.32s16.72-1.43,23.86-4.32c7.14-2.88,13.26-6.92,18.33-12.1s8.99-11.41,11.76-18.68c2.77-7.26,4.15-15.27,4.15-24.03s-1.38-16.77-4.15-24.04c-2.76-7.26-6.69-13.48-11.76-18.67s-11.18-9.22-18.33-12.1c-7.14-2.88-15.1-4.32-23.86-4.32s-16.72,1.44-23.85,4.32c-7.15,2.88-13.26,6.92-18.33,12.1s-8.99,11.41-11.75,18.67c-2.77,7.26-4.15,15.28-4.15,24.04Z"/>
  </g>
  <g>
    <path class="st2" d="M1263.81,700.76c-18.67,0-33.6-3.28-44.78-9.85-11.19-6.57-16.77-15.39-16.77-26.46v-3.46h-3.46v94.41h-58.79v-149.73c0-14.29,2.65-27.31,7.96-39.07,5.3-11.76,12.8-21.84,22.48-30.26,9.68-8.41,21.27-14.93,34.75-19.54,13.48-4.61,28.53-6.91,45.13-6.91s31.69,2.3,45.3,6.91c13.6,4.61,25.18,11.13,34.75,19.54,9.57,8.42,17,18.5,22.3,30.26,5.3,11.76,7.96,24.78,7.96,39.07,0,15.45-2.42,29.05-7.26,40.8-4.84,11.76-11.58,21.67-20.23,29.74-8.64,8.07-18.9,14.18-30.77,18.33-11.88,4.15-24.72,6.22-38.56,6.22ZM1198.8,605.67c0,12.45,4.72,22.36,14.18,29.74,9.45,7.38,21.9,11.06,37.35,11.06s27.89-3.69,37.35-11.06c9.45-7.38,14.18-17.29,14.18-29.74s-4.73-22.01-14.18-29.39c-9.45-7.38-21.9-11.06-37.35-11.06s-27.9,3.69-37.35,11.06c-9.45,7.38-14.18,17.18-14.18,29.39Z"/>
    <path class="st2" d="M1439.13,674.48c0,8.77,2.65,15.79,7.96,21.1,5.3,5.31,12.33,7.96,21.09,7.96s15.85-2.65,21.27-7.96c5.42-5.3,8.13-12.33,8.13-21.1v-91.98h58.78v89.21c0,13.14-2.07,25.07-6.22,35.79-4.15,10.72-10.03,19.88-17.63,27.5-7.61,7.61-16.77,13.48-27.5,17.63-10.72,4.15-22.65,6.23-35.79,6.23s-25.54-2.08-36.48-6.23c-10.95-4.15-20.35-10.03-28.18-17.63-7.84-7.61-13.83-16.77-17.98-27.5-4.15-10.71-6.22-22.65-6.22-35.79v-89.21h58.79v91.98Z"/>
    <path class="st2" d="M1576.06,496.05h58.79v259.35h-58.79v-259.35Z"/>
    <path class="st2" d="M1653.86,635.41c0-19.59,7.09-33.95,21.27-43.05,14.17-9.1,33.25-13.66,57.23-13.66,12.91,0,24.55.75,34.93,2.25,10.37,1.51,20.28,3.98,29.74,7.44v50.14c-3-1.16-6.81-2.42-11.41-3.81-4.61-1.38-9.86-2.76-15.74-4.15-5.87-1.38-12.22-2.54-19.01-3.46-6.81-.91-14.01-1.38-21.62-1.38-6,0-10.2.64-12.62,1.9-2.42,1.27-3.63,3.06-3.63,5.36,0,3.23,2.25,5.76,6.74,7.61,4.49,1.85,10.14,3.63,16.94,5.36,6.79,1.73,14.11,3.69,21.96,5.88,7.83,2.19,15.15,5.25,21.95,9.16,6.8,3.93,12.45,9.16,16.94,15.74,4.5,6.57,6.75,15.04,6.75,25.41s-1.85,18.45-5.54,25.59c-3.69,7.14-8.94,13.02-15.74,17.63-6.8,4.61-15.04,8.07-24.72,10.38-9.68,2.3-20.52,3.46-32.5,3.46-12.91,0-24.55-.75-34.93-2.25-10.37-1.51-20.29-4.09-29.73-7.78v-50.14c2.99,1.16,6.79,2.48,11.41,3.98,4.61,1.5,9.86,2.94,15.74,4.32,5.87,1.38,12.21,2.54,19.01,3.46s14.01,1.38,21.62,1.38c5.99,0,10.25-.69,12.8-2.08,2.53-1.38,3.8-3.11,3.8-5.18,0-3.46-2.25-6.11-6.74-7.96-4.5-1.84-10.15-3.57-16.95-5.18-6.8-1.61-14.17-3.51-22.13-5.7-7.96-2.19-15.33-5.3-22.13-9.34-6.81-4.03-12.45-9.34-16.94-15.91-4.5-6.57-6.75-15.04-6.75-25.42Z"/>
    <path class="st2" d="M1880.36,680.71c.91,6.68,4.26,12.56,10.03,17.63,5.76,5.07,13.95,7.61,24.56,7.61,6.68,0,11.98-.92,15.91-2.77,3.92-1.84,6.79-4.26,8.64-7.26h60.51c-3.92,21.67-13.48,37.58-28.7,47.72-15.22,10.15-34.81,15.22-58.79,15.22-13.61,0-26-2.13-37.18-6.4-11.18-4.26-20.75-10.38-28.7-18.33-7.95-7.96-14.12-17.46-18.49-28.53-4.39-11.06-6.57-23.28-6.57-36.65s2.19-25.88,6.57-36.83c4.37-10.95,10.55-20.4,18.49-28.36,7.96-7.95,17.52-14.06,28.7-18.33,11.18-4.26,23.57-6.4,37.18-6.4,11.98,0,23.28,1.9,33.89,5.7,10.6,3.81,19.88,9.4,27.84,16.77,7.95,7.38,14.23,16.66,18.84,27.83,4.61,11.19,6.91,24.04,6.91,38.56v12.8h-119.64ZM1938.45,647.17c0-6-2.25-11.36-6.74-16.08s-10.43-7.09-17.81-7.09c-4.15,0-7.96.69-11.41,2.08-3.46,1.38-6.52,3.23-9.16,5.54-2.65,2.3-4.9,4.84-6.74,7.61-1.85,2.76-3.34,5.42-4.5,7.96h56.37Z"/>
  </g>
  <g>
    <polygon class="st1" points="1152.36 203.71 979.44 203.71 967.08 225.13 954.73 246.51 954.08 246.51 954.08 247.62 942.37 267.89 930.02 289.31 917.66 310.69 942.37 353.45 954.08 373.76 954.08 374.87 954.73 374.87 967.08 396.25 979.39 417.63 979.44 417.63 991.79 439.05 967.08 481.81 954.73 460.43 954.08 459.36 954.08 459.32 942.37 439.05 930.02 417.63 917.66 396.25 911.28 385.23 911.28 385.19 905.31 374.87 892.95 353.49 880.6 332.07 868.47 311.06 868.47 310.32 880.6 289.31 892.95 267.89 905.31 246.51 911.28 236.15 917.66 225.09 942.37 182.33 954.08 162.02 954.68 160.95 1127.65 160.95 1152.36 203.71"/>
    <polyline class="st0" points="1151.44 374.87 1139.08 353.49 1114.37 396.25 1065 310.69 1015.58 396.25 989.34 356.13 977.09 374.87 975.87 374.87 953.48 374.87"/>
  </g>
</svg>